<svg width="12" height="12" viewBox="0 0 12 12" fill="none" xmlns="http://www.w3.org/2000/svg">
<path d="M1.2 9.3V2.7C1.2 2.45 1.2875 2.2375 1.4625 2.0625C1.6375 1.8875 1.85 1.8 2.1 1.8H5.1C5.35 1.8 5.5625 1.8875 5.7375 2.0625C5.9125 2.2375 6 2.45 6 2.7V3.6H9.9C10.15 3.6 10.3625 3.6875 10.5375 3.8625C10.7125 4.0375 10.8 4.25 10.8 4.5V9.3C10.8 9.55 10.7125 9.7625 10.5375 9.9375C10.3625 10.1125 10.15 10.2 9.9 10.2H2.1C1.85 10.2 1.6375 10.1125 1.4625 9.9375C1.2875 9.7625 1.2 9.55 1.2 9.3ZM2.1 9.3H3V8.4H2.1V9.3ZM2.1 7.4H3V6.5H2.1V7.4ZM2.1 5.5H3V4.6H2.1V5.5ZM2.1 3.6H3V2.7H2.1V3.6ZM4.2 9.3H5.1V8.4H4.2V9.3ZM4.2 7.4H5.1V6.5H4.2V7.4ZM4.2 5.5H5.1V4.6H4.2V5.5ZM4.2 3.6H5.1V2.7H4.2V3.6ZM6 9.3H9.9V4.5H6V5.5H6.9V6.4H6V7.4H6.9V8.3H6V9.3ZM8.1 6.4V5.5H9V6.4H8.1ZM8.1 8.3V7.4H9V8.3H8.1Z" fill="white"/>
</svg>
