<svg width="9" height="8" viewBox="0 0 9 8" fill="none" xmlns="http://www.w3.org/2000/svg">
<path d="M1.19922 6.3V6.6C1.19922 6.76667 1.14089 6.90833 1.02422 7.025C0.907552 7.14167 0.765886 7.2 0.599219 7.2C0.432552 7.2 0.290886 7.14167 0.174219 7.025C0.0575522 6.90833 -0.000781178 6.76667 -0.000781178 6.6V3.175C-0.000781178 3.11667 0.00338548 3.0625 0.0117188 3.0125C0.0283855 2.95417 0.0450521 2.89583 0.0617188 2.8375L0.974219 0.562499C1.04089 0.395833 1.14922 0.2625 1.29922 0.1625C1.45755 0.0541661 1.62839 -7.15256e-07 1.81172 -7.15256e-07H6.58672C6.77005 -7.15256e-07 6.93672 0.0541661 7.08672 0.1625C7.24505 0.2625 7.35755 0.395833 7.42422 0.562499L8.33672 2.8375C8.35339 2.89583 8.36589 2.95417 8.37422 3.0125C8.39089 3.0625 8.39922 3.11667 8.39922 3.175V6.6C8.39922 6.76667 8.34089 6.90833 8.22422 7.025C8.10755 7.14167 7.96589 7.2 7.79922 7.2C7.63255 7.2 7.49089 7.14167 7.37422 7.025C7.25755 6.90833 7.19922 6.76667 7.19922 6.6V6.3H1.19922ZM1.21172 2.4H7.18672L6.58672 0.9H1.81172L1.21172 2.4ZM0.899219 3.3V5.4V3.3ZM2.09922 4.95C2.26589 4.95 2.40755 4.89167 2.52422 4.775C2.64089 4.65833 2.69922 4.51667 2.69922 4.35C2.69922 4.18333 2.64089 4.04167 2.52422 3.925C2.40755 3.80833 2.26589 3.75 2.09922 3.75C1.93255 3.75 1.79089 3.80833 1.67422 3.925C1.55755 4.04167 1.49922 4.18333 1.49922 4.35C1.49922 4.51667 1.55755 4.65833 1.67422 4.775C1.79089 4.89167 1.93255 4.95 2.09922 4.95ZM6.29922 4.95C6.46589 4.95 6.60755 4.89167 6.72422 4.775C6.84089 4.65833 6.89922 4.51667 6.89922 4.35C6.89922 4.18333 6.84089 4.04167 6.72422 3.925C6.60755 3.80833 6.46589 3.75 6.29922 3.75C6.13255 3.75 5.99089 3.80833 5.87422 3.925C5.75755 4.04167 5.69922 4.18333 5.69922 4.35C5.69922 4.51667 5.75755 4.65833 5.87422 4.775C5.99089 4.89167 6.13255 4.95 6.29922 4.95ZM0.899219 5.4H7.49922V3.3H0.899219V5.4Z" fill="#041C2C"/>
</svg>
